<svg fill="none" height="20" viewBox="0 0 89 20" width="89" xmlns="http://www.w3.org/2000/svg"><g fill="#fff"><path d="m11.5625 0 11.5625 20h-23.125z"/><path d="m49.875 10.625c0-3.21875-2.375-5.46875-5.7813-5.46875-3.4062 0-5.7812 2.25-5.7812 5.46875 0 3.1562 2.5625 5.4687 6.0937 5.4687 1.9376 0 3.6876-.7187 4.8126-2.0312l-2.125-1.2188c-.6563.6563-1.625 1.0625-2.6876 1.0625-1.5624 0-2.9062-.8437-3.375-2.125l-.0937-.2187h8.8437c.0626-.3125.0938-.625.0938-.9375zm-8.9688-.9375.0626-.1875c.4062-1.34375 1.5937-2.15625 3.0937-2.15625 1.5313 0 2.6875.8125 3.0937 2.15625l.0626.1875z"/><path d="m83.5313 10.625c0-3.21875-2.375-5.46875-5.7813-5.46875-3.4062 0-5.7812 2.25-5.7812 5.46875 0 3.1562 2.5625 5.4687 6.0937 5.4687 1.9375 0 3.6875-.7187 4.8125-2.0312l-2.125-1.2188c-.6562.6563-1.625 1.0625-2.6875 1.0625-1.5625 0-2.9062-.8437-3.375-2.125l-.0937-.2187h8.8437c.0625-.3125.0938-.625.0938-.9375zm-8.9688-.9375.0625-.1875c.4063-1.34375 1.5938-2.15625 3.0938-2.15625 1.5312 0 2.6875.8125 3.0937 2.15625l.0625.1875z"/><path d="m68.5313 8.84374 2.125-1.21875c-1-1.5625-2.7813-2.4375-4.9375-2.4375-3.4063 0-5.7813 2.25-5.7813 5.46871 0 3.2188 2.375 5.4688 5.7813 5.4688 2.1562 0 3.9375-.875 4.9375-2.4375l-2.125-1.2188c-.5625.9375-1.5625 1.4688-2.8125 1.4688-1.9688 0-3.2813-1.3125-3.2813-3.2813 0-1.96871 1.3125-3.28121 3.2813-3.28121 1.2187 0 2.25.53125 2.8125 1.46875z"/><path d="m88.2188 1.75h-2.5v14.0625h2.5z"/><path d="m40.1563 1.75h-2.875l-5.5 9.5-5.5-9.5h-2.9063l8.4063 14.5z"/><path d="m57.8438 8.0625c.2812 0 .5624.03125.8437.09375v-2.65625c-2.125.0625-4.125 1.25-4.125 2.71875v-2.71875h-2.5v10.3125h2.5v-4.4688c0-1.93745 1.3437-3.2812 3.2813-3.2812z"/></g></svg>