<svg fill="none" height="64" viewBox="0 0 64 64" width="64" xmlns="http://www.w3.org/2000/svg" xmlns:xlink="http://www.w3.org/1999/xlink"><clipPath id="a"><path d="m0 0h64v64h-64z"/></clipPath><clipPath id="b"><path d="m17 17h30v30h-30z"/></clipPath><g clip-path="url(#a)"><g clip-path="url(#b)"><path d="m47 32c0-8.2842-6.7158-15-15-15s-15 6.7158-15 15c0 7.0344 4.8432 12.9372 11.3766 14.5584v-9.9744h-3.093v-4.584h3.093v-1.9752c0-5.1054 2.3106-7.4718 7.323-7.4718.9504 0 2.5902.1866 3.261.3726v4.155c-.354-.0372-.969-.0558-1.7328-.0558-2.4594 0-3.4098.9318-3.4098 3.354v1.6212h4.8996l-.8418 4.584h-4.0578v10.3062c7.4274-.897 13.1826-7.221 13.1826-14.8902z" fill="#8c9095"/><path d="m37.8735 36.5818.8418-4.584h-4.8996v-1.6212c0-2.4222.9503-3.354 3.4097-3.354.7639 0 1.3789.0186 1.7329.0558v-4.155c-.6708-.1866-2.3107-.3726-3.2611-.3726-5.0124 0-7.3229 2.3664-7.3229 7.4718v1.9752h-3.0931v4.584h3.0931v9.9744c1.1604.288 2.3742.4416 3.6234.4416.615 0 1.2216-.0378 1.8174-.1098v-10.3062h4.0578z" fill="#fff"/></g></g></svg>