<svg width="3184" height="1458" viewBox="0 0 3184 1458" fill="none" xmlns="http://www.w3.org/2000/svg">
<path d="M1796.81 677.947C1790.97 660.059 1783.27 644.031 1773.7 629.862C1764.31 615.516 1753.07 603.296 1739.96 593.201C1727.03 583.105 1712.33 575.401 1695.86 570.088C1679.39 564.775 1661.33 562.118 1641.67 562.118C1609.43 562.118 1580.12 570.442 1553.73 587.09C1527.34 603.739 1506.35 628.268 1490.77 660.679C1475.18 693.09 1467.39 732.851 1467.39 779.962C1467.39 827.073 1475.27 866.834 1491.03 899.245C1506.8 931.656 1528.14 956.186 1555.06 972.834C1581.98 989.483 1612.27 997.807 1645.92 997.807C1677.09 997.807 1704.54 991.165 1728.27 977.882C1752.18 964.422 1770.78 945.471 1784.06 921.03C1797.52 896.412 1804.25 867.454 1804.25 834.158L1824.44 838.408H1660.79V779.962H1868.01V838.408C1868.01 883.217 1858.45 922.181 1839.32 955.3C1820.37 988.42 1794.16 1014.1 1760.68 1032.34C1727.39 1050.41 1689.13 1059.44 1645.92 1059.44C1597.74 1059.44 1555.41 1048.11 1518.93 1025.44C1482.62 1002.77 1454.28 970.532 1433.92 928.734C1413.73 886.936 1403.63 837.346 1403.63 779.962C1403.63 736.925 1409.39 698.226 1420.9 663.867C1432.59 629.331 1449.06 599.931 1470.31 575.667C1491.57 551.403 1516.72 532.806 1545.76 519.877C1574.81 506.948 1606.78 500.484 1641.67 500.484C1670.36 500.484 1697.1 504.823 1721.9 513.501C1746.87 522.003 1769.1 534.135 1788.58 549.897C1808.24 565.483 1824.62 584.168 1837.73 605.952C1850.83 627.56 1859.87 651.558 1864.82 677.947H1796.81ZM1972.35 1052V643.942H2032.92V705.576H2037.17C2044.61 685.386 2058.07 669.003 2077.55 656.429C2097.04 643.854 2119 637.566 2143.44 637.566C2148.04 637.566 2153.8 637.655 2160.71 637.832C2167.61 638.009 2172.84 638.275 2176.38 638.629V702.388C2174.26 701.857 2169.39 701.06 2161.77 699.997C2154.33 698.758 2146.45 698.138 2138.13 698.138C2118.29 698.138 2100.58 702.3 2084.99 710.624C2069.58 718.771 2057.36 730.106 2048.33 744.629C2039.48 758.975 2035.05 775.357 2035.05 793.777V1052H1972.35ZM2370.78 1061.57C2344.92 1061.57 2321.46 1056.7 2300.38 1046.95C2279.3 1037.04 2262.57 1022.78 2250.17 1004.18C2237.77 985.409 2231.57 962.739 2231.57 936.173C2231.57 912.794 2236.18 893.844 2245.39 879.321C2254.6 864.621 2266.91 853.108 2282.31 844.784C2297.72 836.46 2314.73 830.261 2333.32 826.188C2352.1 821.937 2370.96 818.572 2389.91 816.093C2414.7 812.905 2434.81 810.514 2450.21 808.92C2465.8 807.149 2477.14 804.226 2484.22 800.153C2491.48 796.079 2495.11 788.995 2495.11 778.9V776.774C2495.11 750.562 2487.94 730.195 2473.59 715.672C2459.42 701.149 2437.91 693.887 2409.04 693.887C2379.11 693.887 2355.64 700.44 2338.64 713.546C2321.63 726.652 2309.68 740.644 2302.77 755.521L2243.26 734.268C2253.89 709.473 2268.06 690.168 2285.77 676.353C2303.66 662.362 2323.14 652.621 2344.21 647.13C2365.47 641.463 2386.37 638.629 2406.91 638.629C2420.02 638.629 2435.07 640.223 2452.07 643.411C2469.25 646.422 2485.81 652.709 2501.75 662.273C2517.87 671.837 2531.24 686.271 2541.87 705.576C2552.5 724.881 2557.81 750.739 2557.81 783.15V1052H2495.11V996.744H2491.92C2487.67 1005.6 2480.59 1015.07 2470.67 1025.17C2460.75 1035.27 2447.56 1043.86 2431.09 1050.94C2414.62 1058.02 2394.51 1061.57 2370.78 1061.57ZM2380.34 1005.25C2405.14 1005.25 2426.04 1000.37 2443.04 990.634C2460.22 980.893 2473.15 968.318 2481.83 952.909C2490.68 937.501 2495.11 921.295 2495.11 904.293V846.91C2492.46 850.098 2486.61 853.02 2477.58 855.676C2468.72 858.156 2458.45 860.37 2446.76 862.318C2435.25 864.089 2424 865.683 2413.02 867.1C2402.22 868.34 2393.45 869.402 2386.72 870.288C2370.43 872.413 2355.2 875.867 2341.03 880.649C2327.04 885.254 2315.7 892.25 2307.02 901.636C2298.52 910.846 2294.27 923.421 2294.27 939.361C2294.27 961.145 2302.33 977.616 2318.45 988.774C2334.74 999.755 2355.37 1005.25 2380.34 1005.25ZM2672.24 1052V643.942H2734.94V1052H2672.24ZM2704.12 575.932C2691.9 575.932 2681.36 571.77 2672.51 563.446C2663.83 555.122 2659.49 545.115 2659.49 533.426C2659.49 521.737 2663.83 511.73 2672.51 503.406C2681.36 495.082 2691.9 490.92 2704.12 490.92C2716.34 490.92 2726.79 495.082 2735.47 503.406C2744.33 511.73 2748.75 521.737 2748.75 533.426C2748.75 545.115 2744.33 555.122 2735.47 563.446C2726.79 571.77 2716.34 575.932 2704.12 575.932ZM3138.82 735.331L3082.49 751.271C3078.95 741.884 3073.73 732.763 3066.82 723.907C3060.09 714.875 3050.88 707.436 3039.19 701.591C3027.5 695.747 3012.54 692.825 2994.29 692.825C2969.32 692.825 2948.51 698.581 2931.86 710.093C2915.39 721.428 2907.16 735.862 2907.16 753.396C2907.16 768.982 2912.82 781.291 2924.16 790.323C2935.49 799.356 2953.2 806.883 2977.29 812.905L3037.86 827.782C3074.35 836.637 3101.53 850.186 3119.42 868.428C3137.31 886.494 3146.25 909.783 3146.25 938.298C3146.25 961.676 3139.52 982.575 3126.06 1000.99C3112.78 1019.41 3094.18 1033.94 3070.27 1044.56C3046.36 1055.19 3018.56 1060.5 2986.86 1060.5C2945.23 1060.5 2910.79 1051.47 2883.51 1033.41C2856.24 1015.34 2838.97 988.951 2831.71 954.238L2891.22 939.361C2896.88 961.322 2907.6 977.793 2923.36 988.774C2939.3 999.755 2960.11 1005.25 2985.79 1005.25C3015.02 1005.25 3038.22 999.046 3055.4 986.649C3072.75 974.074 3081.43 959.02 3081.43 941.486C3081.43 927.317 3076.47 915.451 3066.55 905.887C3056.64 896.146 3041.41 888.884 3020.86 884.103L2952.85 868.163C2915.48 859.307 2888.03 845.581 2870.49 826.985C2853.14 808.211 2844.46 784.744 2844.46 756.584C2844.46 733.56 2850.92 713.192 2863.85 695.481C2876.96 677.77 2894.76 663.867 2917.25 653.772C2939.92 643.677 2965.6 638.629 2994.29 638.629C3034.68 638.629 3066.38 647.485 3089.4 665.195C3112.6 682.906 3129.07 706.285 3138.82 735.331Z" fill="black"/>
<circle cx="466.679" cy="903.858" r="189.095" transform="rotate(-123.778 466.679 903.858)" stroke="black" stroke-width="42.0212"/>
<circle cx="549.324" cy="838.466" r="294.148" transform="rotate(-123.778 549.324 838.466)" stroke="black" stroke-width="42.0212"/>
<circle cx="636.644" cy="780.057" r="399.201" transform="rotate(-123.778 636.644 780.057)" stroke="black" stroke-width="42.0212"/>
<circle cx="728.636" cy="728.635" r="504.254" transform="rotate(-123.778 728.636 728.635)" stroke="black" stroke-width="42.0212"/>
</svg>
