<svg fill="none" height="64" viewBox="0 0 64 64" width="64" xmlns="http://www.w3.org/2000/svg" xmlns:xlink="http://www.w3.org/1999/xlink"><linearGradient id="a"><stop offset="0"/><stop offset="1" stop-color="#666"/></linearGradient><linearGradient id="b" gradientUnits="userSpaceOnUse" x1="32" x2="32" xlink:href="#a" y1="17" y2="47"/><linearGradient id="c"><stop offset="0" stop-color="#fd5"/><stop offset=".1" stop-color="#fd5"/><stop offset=".5" stop-color="#ff543e"/><stop offset="1" stop-color="#c837ab"/></linearGradient><radialGradient id="d" cx="0" cy="0" gradientTransform="matrix(0 -29.7322 27.6533 0 24.9688 49.3106)" gradientUnits="userSpaceOnUse" r="1" xlink:href="#c"/><linearGradient id="e" gradientUnits="userSpaceOnUse" x1="31.9992" x2="31.9992" xlink:href="#a" y1="25.6992" y2="38.2992"/><radialGradient id="f" cx="0" cy="0" gradientTransform="matrix(0 -12.4875 11.6144 0 29.0461 39.2697)" gradientUnits="userSpaceOnUse" r="1" xlink:href="#c"/><linearGradient id="g" gradientUnits="userSpaceOnUse" x1="39.3504" x2="39.3504" xlink:href="#a" y1="21.7988" y2="25.6988"/><radialGradient id="h" cx="0" cy="0" gradientTransform="matrix(0 -3.86519 3.59493 0 38.4363 25.9992)" gradientUnits="userSpaceOnUse" r="1" xlink:href="#c"/><clipPath id="i"><path d="m0 0h64v64h-64z"/></clipPath><g clip-path="url(#i)"><g stroke-width="2"><rect height="28" rx="8" stroke="url(#b)" width="28" x="18" y="18"/><rect height="28" rx="8" stroke="url(#d)" width="28" x="18" y="18"/><rect height="10.6" rx="5.3" stroke="url(#e)" width="10.6" x="26.6992" y="26.6992"/><rect height="10.6" rx="5.3" stroke="url(#f)" width="10.6" x="26.6992" y="26.6992"/></g><rect fill="url(#g)" height="3.43571" rx="1.71786" width="3.43571" x="37.6325" y="22.031"/><rect fill="url(#h)" height="3.43571" rx="1.71786" width="3.43571" x="37.6325" y="22.031"/><g stroke-width=".464286"><rect height="3.43571" rx="1.71786" stroke="url(#g)" width="3.43571" x="37.6325" y="22.031"/><rect height="3.43571" rx="1.71786" stroke="url(#h)" width="3.43571" x="37.6325" y="22.031"/></g></g></svg>