<svg fill="none" height="64" viewBox="0 0 64 64" width="64" xmlns="http://www.w3.org/2000/svg" xmlns:xlink="http://www.w3.org/1999/xlink"><clipPath id="a"><path d="m0 0h64v64h-64z"/></clipPath><clipPath id="b"><path d="m19 19h26v26h-26z"/></clipPath><g clip-path="url(#a)"><g clip-path="url(#b)"><path d="m43.0807 19h-22.1614c-.509 0-.9972.2022-1.3571.5622-.36.3599-.5622.8481-.5622 1.3571v22.1614c0 .509.2022.9972.5622 1.3572.3599.3599.8481.5621 1.3571.5621h22.1614c.509 0 .9972-.2022 1.3572-.5621.3599-.36.5621-.8482.5621-1.3572v-22.1614c0-.509-.2022-.9972-.5621-1.3571-.36-.36-.8482-.5622-1.3572-.5622zm-16.3313 22.1488h-3.909v-12.4169h3.909zm-1.9572-14.1375c-.4434-.0025-.8761-.1363-1.2436-.3845-.3674-.2482-.6531-.5997-.821-1.0101s-.2104-.8614-.1222-1.296c.0881-.4345.3031-.8332.6176-1.1458.3146-.3125.7146-.5249 1.1498-.6102.4351-.0854.8857-.04 1.2951.1305.4093.1705.7589.4585 1.0048.8275.2458.369.3768.8026.3765 1.2461.0041.2968-.0515.5915-.1636.8664s-.2785.5244-.4891.7337-.4612.374-.7368.4843c-.2756.1104-.5706.1641-.8675.1581zm16.3656 14.1483h-3.9072v-6.7835c0-2.0005-.8505-2.618-1.9482-2.618-1.1592 0-2.2967.8738-2.2967 2.6686v6.7329h-3.909v-12.4186h3.7591v1.7207h.0506c.3774-.7638 1.699-2.0692 3.7158-2.0692 2.1811 0 4.5374 1.2946 4.5374 5.0863z" fill="#0a66c2"/></g></g></svg>