<svg fill="none" height="64" viewBox="0 0 64 64" width="64" xmlns="http://www.w3.org/2000/svg" xmlns:xlink="http://www.w3.org/1999/xlink"><clipPath id="a"><path d="m0 0h64v64h-64z"/></clipPath><g clip-path="url(#a)"><path d="m18 46 1.8979-6.9334c-1.1712-2.0295-1.7865-4.3301-1.7854-6.6892.0034-7.3755 6.0053-13.3774 13.3796-13.3774 3.5787.0011 6.9379 1.395 9.4647 3.924 2.5256 2.529 3.9161 5.8905 3.915 9.4658-.0034 7.3766-6.0053 13.3785-13.3797 13.3785-2.2387-.0012-4.4449-.5625-6.399-1.629zm7.4216-4.2829c1.8855 1.1194 3.6855 1.7899 6.066 1.791 6.129 0 11.1218-4.9882 11.1252-11.1206.0022-6.1448-4.9669-11.1263-11.1162-11.1285-6.1335 0-11.1228 4.9883-11.1251 11.1195-.0011 2.5031.7324 4.3774 1.9643 6.3382l-1.1239 4.104zm12.8104-6.147c-.0832-.1395-.306-.2227-.6412-.3904-.3342-.1676-1.9778-.9765-2.2849-1.0878-.306-.1114-.5288-.1676-.7527.1676-.2227.3341-.864 1.0879-1.0586 1.3106-.1946.2228-.3904.2509-.7245.0833s-1.4119-.5198-2.6887-1.6594c-.9934-.8865-1.665-1.9811-1.8597-2.3164-.1946-.3341-.0202-.5152.1463-.6817.1507-.1496.3341-.3904.5017-.5861.1699-.1935.225-.333.3375-.5569.1114-.2228.0563-.4185-.0281-.5861-.0843-.1665-.7526-1.8124-1.0305-2.4818-.2722-.6514-.5478-.5636-.7526-.5738l-.6412-.0112c-.2228 0-.5851.0832-.8911.4185-.306.3352-1.17 1.143-1.17 2.7889s1.1982 3.2355 1.3647 3.4582c.1676.2228 2.3568 3.6 5.7105 5.0479.7976.3443 1.4208.5501 1.9057.7042.801.2543 1.53.2183 2.106.1328.6424-.0956 1.9778-.8089 2.2568-1.5896.279-.7819.279-1.4513.1946-1.5908z" fill="#8c9095"/></g></svg>