<svg fill="none" height="64" viewBox="0 0 64 64" width="64" xmlns="http://www.w3.org/2000/svg" xmlns:xlink="http://www.w3.org/1999/xlink"><clipPath id="a"><path d="m0 0h64v64h-64z"/></clipPath><clipPath id="b"><path d="m17 17h30v30h-30z"/></clipPath><g clip-path="url(#a)"><g clip-path="url(#b)"><path d="m46.402 24.7316c-.1696-.6382-.5038-1.2207-.9693-1.6891-.4655-.4685-1.0458-.8065-1.6829-.9802-2.3455-.6307-11.7205-.6307-11.7205-.6307s-9.375 0-11.7205.6307c-.6371.1737-1.2174.5117-1.6829.9802-.4655.4684-.7997 1.0509-.9693 1.6891-.6273 2.3557-.6273 7.2682-.6273 7.2682s0 4.9125.6273 7.2682c.1696.6382.5038 1.2207.9693 1.6892.4655.4684 1.0458.8064 1.6829.9801 2.3455.6307 11.7205.6307 11.7205.6307s9.375 0 11.7205-.6307c.6371-.1737 1.2174-.5117 1.6829-.9801.4655-.4685.7997-1.051.9693-1.6892.6273-2.3557.6273-7.2682.6273-7.2682s0-4.9125-.6273-7.2682z" fill="#ff0302"/><path d="m28.9609 36.4607v-8.9216l7.8409 4.4608z" fill="#fefefe"/></g></g></svg>