<svg fill="none" height="100" viewBox="0 0 100 100" width="100" xmlns="http://www.w3.org/2000/svg"><g fill="#ff1b2d"><path d="m99.8048 50.0622c0 14.8195-6.455 28.1445-16.6342 37.3599-12.7859 6.2267-24.7029 1.868-28.6752-.8717 12.5376-2.7397 22.0961-18.0573 22.0961-36.4882 0-18.4308-9.5585-33.7484-22.0961-36.4881 3.9723-2.7397 15.8893-7.0984 28.6752-.8718 10.1792 9.2155 16.6342 22.5405 16.6342 37.3599z"/><path d="m33.5166 21.7933c-5.462 6.4757-9.0619 16.1893-9.3102 27.0236v2.3662c.2483 10.8343 3.8482 20.5479 9.3102 27.0236 7.1998 9.34 17.7513 15.193 29.6683 15.193 7.324 0 14.1515-2.2415 19.9858-6.1021-8.8136 7.9701-20.4823 12.7024-33.2683 12.7024-.7448 0-1.6137 0-2.3585 0-26.4409-1.1208-47.5439-23.0386-47.5439-49.9377 0-27.6464 22.3444-50.0623 49.9024-50.0623h.2483c12.6618 0 24.2063 4.85677 33.0199 12.7023-5.8343-3.86047-12.6617-6.10205-19.9857-6.10205-11.917 0-22.5926 5.97755-29.6683 15.19305z"/></g></svg>